<svg xmlns="http://www.w3.org/2000/svg" fill="none" viewBox="0 0 105 105">
    <path d="M 73.59 0 H 16.41 c -1.388 0 -2.513 1.125 -2.513 2.513 v 84.975 c 0 1.388 1.125 2.513 2.513 2.513 h 57.18 c 1.388 0 2.513 -1.125 2.513 -2.513 V 2.513 C 76.103 1.125 74.978 0 73.59 0 z M 32.787 78.494 c 0 1.388 -1.125 2.513 -2.513 2.513 h -4.872 c -1.388 0 -2.513 -1.125 -2.513 -2.513 v -3.797 c 0 -1.388 1.125 -2.513 2.513 -2.513 h 4.872 c 1.388 0 2.513 1.125 2.513 2.513 V 78.494 z M 32.787 62.091 c 0 1.388 -1.125 2.513 -2.513 2.513 h -4.872 c -1.388 0 -2.513 -1.125 -2.513 -2.513 v -3.797 c 0 -1.388 1.125 -2.513 2.513 -2.513 h 4.872 c 1.388 0 2.513 1.125 2.513 2.513 V 62.091 z M 32.787 45.688 c 0 1.388 -1.125 2.513 -2.513 2.513 h -4.872 c -1.388 0 -2.513 -1.125 -2.513 -2.513 v -3.797 c 0 -1.388 1.125 -2.513 2.513 -2.513 h 4.872 c 1.388 0 2.513 1.125 2.513 2.513 V 45.688 z M 49.948 78.494 c 0 1.388 -1.125 2.513 -2.513 2.513 h -4.872 c -1.388 0 -2.513 -1.125 -2.513 -2.513 v -3.797 c 0 -1.388 1.125 -2.513 2.513 -2.513 h 4.872 c 1.388 0 2.513 1.125 2.513 2.513 V 78.494 z M 49.948 62.091 c 0 1.388 -1.125 2.513 -2.513 2.513 h -4.872 c -1.388 0 -2.513 -1.125 -2.513 -2.513 v -3.797 c 0 -1.388 1.125 -2.513 2.513 -2.513 h 4.872 c 1.388 0 2.513 1.125 2.513 2.513 V 62.091 z M 49.948 45.688 c 0 1.388 -1.125 2.513 -2.513 2.513 h -4.872 c -1.388 0 -2.513 -1.125 -2.513 -2.513 v -3.797 c 0 -1.388 1.125 -2.513 2.513 -2.513 h 4.872 c 1.388 0 2.513 1.125 2.513 2.513 V 45.688 z M 67.109 78.494 c 0 1.388 -1.125 2.513 -2.513 2.513 h -4.872 c -1.388 0 -2.513 -1.125 -2.513 -2.513 v -20.2 c 0 -1.388 1.125 -2.513 2.513 -2.513 h 4.872 c 1.388 0 2.513 1.125 2.513 2.513 V 78.494 z M 67.109 45.688 c 0 1.388 -1.125 2.513 -2.513 2.513 h -4.872 c -1.388 0 -2.513 -1.125 -2.513 -2.513 v -3.797 c 0 -1.388 1.125 -2.513 2.513 -2.513 h 4.872 c 1.388 0 2.513 1.125 2.513 2.513 V 45.688 z M 67.109 29.235 c 0 1.388 -1.125 2.513 -2.513 2.513 H 25.403 c -1.388 0 -2.513 -1.125 -2.513 -2.513 V 11.506 c 0 -1.388 1.125 -2.513 2.513 -2.513 h 39.193 c 1.388 0 2.513 1.125 2.513 2.513 V 29.235 z"/>
    <style>
        path { fill: #000; }
        @media (prefers-color-scheme: dark) {
            path { fill: #FFF; }
        }
    </style>
</svg>
